Coordinates
version=1
nRows=24
nColumns=38
inDegrees=no

Units are S.I. units (second, meters, Newtons, ...)
If the header above contains a line with 'inDegrees', this indicates whether rotational values are in degrees (yes) or radians (no).

endheader
time	pelvis_tilt	pelvis_list	pelvis_rotation	pelvis_tx	pelvis_ty	pelvis_tz	hip_flexion_r	hip_adduction_r	hip_rotation_r	knee_angle_r	ankle_angle_r	subtalar_angle_r	mtp_angle_r	hip_flexion_l	hip_adduction_l	hip_rotation_l	knee_angle_l	ankle_angle_l	subtalar_angle_l	mtp_angle_l	lumbar_extension	lumbar_bending	lumbar_rotation	arm_flex_r	arm_add_r	arm_rot_r	elbow_flex_r	pro_sup_r	wrist_flex_r	wrist_dev_r	arm_flex_l	arm_add_l	arm_rot_l	elbow_flex_l	pro_sup_l	wrist_flex_l	wrist_dev_l
40	2.154	1.52271	-0.469593	0.665571	0.65472	0.93335	0.0703464	-0.0920976	-0.225565	0.448105	-0.208477	0	0	-0.048834	-0.150549	-0.357808	0.176702	-0.412768	0	0	-0.211044	0.14553	-0.157929	0.229428	-0.423649	0.579719	0.548339	0.980412	0	0	0.0514518	-0.218228	0.258192	0.756025	1.49286	0	0
40.01	2.06113	1.52608	-0.380948	0.666472	0.652842	0.932581	0.0867155	-0.0937184	-0.215354	0.4627	-0.204513	0	0	-0.0317545	-0.152677	-0.365416	0.19693	-0.404881	0	0	-0.2133	0.146051	-0.151909	0.231107	-0.425155	0.571414	0.54771	0.977684	0	0	0.0523849	-0.218907	0.254429	0.761769	1.49289	0	0
40.02	1.95185	1.52811	-0.271384	0.66692	0.651132	0.931753	0.100739	-0.0950458	-0.212386	0.474609	-0.202111	0	0	-0.013086	-0.156192	-0.367494	0.218956	-0.398	0	0	-0.214849	0.148351	-0.150059	0.233025	-0.427283	0.565434	0.546552	0.976667	0	0	0.0533691	-0.219785	0.251695	0.766111	1.4943	0	0
40.03	1.79502	1.52942	-0.113529	0.667323	0.649383	0.930684	0.117102	-0.0962573	-0.210094	0.488275	-0.198786	0	0	0.0087414	-0.16051	-0.368351	0.243711	-0.389208	0	0	-0.214826	0.151256	-0.14888	0.234539	-0.429251	0.558186	0.545451	0.974927	0	0	0.054295	-0.220477	0.248792	0.770154	1.49622	0	0
40.04	1.6266	1.52927	0.054948	0.667854	0.647447	0.929495	0.134901	-0.096784	-0.205334	0.503448	-0.195087	0	0	0.0315815	-0.165506	-0.369254	0.27002	-0.379881	0	0	-0.215391	0.154396	-0.14658	0.236591	-0.431174	0.550514	0.544396	0.971685	0	0	0.0554615	-0.221315	0.245804	0.774758	1.49764	0	0
40.05	1.46296	1.52785	0.218346	0.668442	0.645395	0.928196	0.153328	-0.0970632	-0.199492	0.519342	-0.191024	0	0	0.0548839	-0.170677	-0.369358	0.296942	-0.370481	0	0	-0.21648	0.157554	-0.143788	0.239045	-0.433148	0.543449	0.543246	0.968124	0	0	0.0569003	-0.222199	0.242811	0.779547	1.49866	0	0
40.06	1.31551	1.5253	0.365455	0.669068	0.643255	0.926777	0.1722	-0.0972024	-0.193357	0.536204	-0.18651	0	0	0.0782938	-0.175992	-0.368441	0.323894	-0.361145	0	0	-0.218107	0.160736	-0.140646	0.241657	-0.435085	0.536549	0.542125	0.96451	0	0	0.0585719	-0.223242	0.239918	0.784394	1.49974	0	0
40.07	1.19502	1.52142	0.485903	0.6697	0.641092	0.925257	0.191049	-0.0967463	-0.187543	0.553631	-0.181681	0	0	0.101751	-0.182071	-0.366446	0.351083	-0.351827	0	0	-0.220166	0.164582	-0.137491	0.244438	-0.436954	0.529346	0.540839	0.960958	0	0	0.0604276	-0.224156	0.237148	0.789124	1.50067	0	0
40.08	1.09452	1.51701	0.584873	0.670527	0.638747	0.923594	0.211254	-0.0960052	-0.179458	0.572971	-0.176584	0	0	0.124948	-0.188445	-0.364986	0.378282	-0.342695	0	0	-0.223263	0.167945	-0.132907	0.24846	-0.438952	0.52363	0.539216	0.959799	0	0	0.0623992	-0.225577	0.234432	0.794638	1.50153	0	0
40.09	1.00668	1.51178	0.672219	0.671278	0.636456	0.921757	0.231873	-0.0955956	-0.173474	0.592566	-0.172136	0	0	0.148453	-0.194763	-0.361846	0.404757	-0.333728	0	0	-0.22586	0.171596	-0.129159	0.252777	-0.440726	0.518856	0.536651	0.960741	0	0	0.0643224	-0.226987	0.231928	0.800048	1.50263	0	0
40.1	0.933257	1.50633	0.745904	0.67198	0.634193	0.919809	0.252666	-0.0957225	-0.168843	0.61244	-0.168352	0	0	0.171673	-0.20077	-0.357681	0.430552	-0.325106	0	0	-0.22859	0.175271	-0.126008	0.257034	-0.441705	0.512888	0.533443	0.962263	0	0	0.0664288	-0.228381	0.229499	0.805056	1.50444	0	0
40.11	0.869062	1.50109	0.80986	0.672751	0.631869	0.917769	0.273894	-0.096063	-0.163013	0.632457	-0.165041	0	0	0.193979	-0.206124	-0.35391	0.455011	-0.316988	0	0	-0.232025	0.178347	-0.122415	0.262022	-0.442594	0.507665	0.529946	0.966622	0	0	0.0687678	-0.229895	0.227064	0.809993	1.50646	0	0
40.12	0.810286	1.4961	0.867471	0.673613	0.629465	0.915644	0.295354	-0.0963404	-0.155524	0.652535	-0.16143	0	0	0.215312	-0.211029	-0.351069	0.478294	-0.309295	0	0	-0.23623	0.180669	-0.117962	0.267819	-0.443784	0.504063	0.526501	0.973723	0	0	0.0713356	-0.231453	0.224604	0.814903	1.50869	0	0
40.13	0.758573	1.49104	0.917834	0.674454	0.627041	0.913441	0.316202	-0.0963726	-0.148234	0.67254	-0.156353	0	0	0.236156	-0.215935	-0.348801	0.500968	-0.301652	0	0	-0.240973	0.182899	-0.113309	0.273739	-0.444863	0.500438	0.523303	0.980872	0	0	0.0738772	-0.232896	0.221868	0.819745	1.51053	0	0
40.14	0.726843	1.48751	0.948833	0.675212	0.624661	0.911329	0.333726	-0.096775	-0.142802	0.691067	-0.151872	0	0	0.254235	-0.220553	-0.346568	0.522138	-0.295711	0	0	-0.24787	0.18519	-0.108943	0.280227	-0.44648	0.498731	0.520324	0.987579	0	0	0.0769858	-0.23437	0.219768	0.824232	1.51119	0	0
40.15	0.693589	1.48382	0.981838	0.675979	0.622364	0.909039	0.353236	-0.0984748	-0.138779	0.714288	-0.146013	0	0	0.272845	-0.225124	-0.344563	0.543928	-0.288557	0	0	-0.254124	0.187259	-0.105199	0.285486	-0.447504	0.494054	0.518375	0.993384	0	0	0.0795797	-0.235697	0.217041	0.828688	1.5119	0	0
40.16	0.669299	1.48111	1.00603	0.676779	0.620045	0.906794	0.371082	-0.100491	-0.135982	0.736168	-0.142057	0	0	0.290158	-0.229588	-0.342048	0.565434	-0.282785	0	0	-0.26187	0.189241	-0.101081	0.290123	-0.44849	0.488593	0.5173	0.995793	0	0	0.0827289	-0.236996	0.214683	0.832838	1.51262	0	0
40.17	0.63249	1.47655	1.04234	0.677585	0.617662	0.904258	0.391204	-0.102404	-0.132575	0.756853	-0.137973	0	0	0.31051	-0.23389	-0.338874	0.588273	-0.275865	0	0	-0.267496	0.190831	-0.0969664	0.293987	-0.44903	0.480271	0.516845	0.997574	0	0	0.085029	-0.237921	0.210857	0.836998	1.51457	0	0
40.18	0.603299	1.4726	1.07124	0.678324	0.61524	0.901725	0.409955	-0.104454	-0.130138	0.776072	-0.135376	0	0	0.330084	-0.237836	-0.335001	0.610758	-0.270394	0	0	-0.274036	0.192431	-0.0932341	0.298607	-0.450003	0.473689	0.516437	0.999235	0	0	0.0873495	-0.238932	0.206982	0.841074	1.51581	0	0
40.19	0.565462	1.46733	1.10855	0.679092	0.61277	0.898899	0.431181	-0.106638	-0.125874	0.795206	-0.133167	0	0	0.352049	-0.241331	-0.330627	0.634344	-0.264222	0	0	-0.278853	0.193437	-0.0896861	0.302684	-0.450389	0.465451	0.516169	1.00142	0	0	0.0890332	-0.239867	0.202153	0.845322	1.51754	0	0
40.2	0.530776	1.46171	1.14311	0.679884	0.610324	0.895921	0.452469	-0.108502	-0.121805	0.814234	-0.130242	0	0	0.374787	-0.244857	-0.325665	0.658635	-0.258119	0	0	-0.283297	0.194492	-0.0864501	0.306582	-0.450747	0.457421	0.51599	1.00394	0	0	0.0906538	-0.240904	0.197567	0.849471	1.5184	0	0
40.21	0.501149	1.4564	1.17273	0.680714	0.607896	0.892807	0.473922	-0.110539	-0.118345	0.834876	-0.12687	0	0	0.397252	-0.248562	-0.320764	0.683304	-0.25197	0	0	-0.288241	0.195491	-0.0832083	0.310017	-0.450787	0.447998	0.516306	1.00493	0	0	0.0922913	-0.242398	0.1939	0.853985	1.51653	0	0
40.22	0.487603	1.45316	1.18684	0.681475	0.605486	0.889829	0.491098	-0.111935	-0.116308	0.8534	-0.124454	0	0	0.416755	-0.252658	-0.315446	0.707094	-0.247828	0	0	-0.296015	0.197333	-0.0797382	0.314039	-0.451601	0.440409	0.51684	1.00511	0	0	0.0952176	-0.244529	0.193073	0.857924	1.51058	0	0
40.23	0.481154	1.45032	1.19437	0.682162	0.603122	0.886808	0.507791	-0.11326	-0.114871	0.87281	-0.12221	0	0	0.435557	-0.256886	-0.309628	0.730416	-0.243715	0	0	-0.304912	0.199845	-0.0778031	0.320965	-0.452908	0.441846	0.515827	1.00183	0	0	0.0961703	-0.24514	0.185174	0.863026	1.51494	0	0
